<svg width="120" height="120" viewBox="0 0 120 120" fill="none" xmlns="http://www.w3.org/2000/svg">
<g clipPath="url(#clip0_1200_5187)">
<path d="M1.42857 106.786C2.21755 106.786 2.85714 106.146 2.85714 105.357C2.85714 104.568 2.21755 103.929 1.42857 103.929C0.639593 103.929 0 104.568 0 105.357C0 106.146 0.639593 106.786 1.42857 106.786Z" fill="#1D2329"/>
<path d="M7.85756 103.929H5.7147C5.33582 103.929 4.97246 104.079 4.70455 104.347C4.43664 104.615 4.28613 104.978 4.28613 105.357C4.28613 105.736 4.43664 106.099 4.70455 106.367C4.97246 106.635 5.33582 106.786 5.7147 106.786H7.85756C8.23644 106.786 8.5998 106.635 8.86771 106.367C9.13562 106.099 9.28613 105.736 9.28613 105.357C9.28613 104.978 9.13562 104.615 8.86771 104.347C8.5998 104.079 8.23644 103.929 7.85756 103.929Z" fill="#1D2329"/>
<path d="M84.3956 109.643H78.4615C78.1024 109.672 77.7673 109.835 77.5229 110.099C77.2785 110.364 77.1428 110.711 77.1428 111.071C77.1428 111.432 77.2785 111.779 77.5229 112.044C77.7673 112.308 78.1024 112.471 78.4615 112.5H84.3956C84.7547 112.471 85.0899 112.308 85.3342 112.044C85.5786 111.779 85.7143 111.432 85.7143 111.071C85.7143 110.711 85.5786 110.364 85.3342 110.099C85.0899 109.835 84.7547 109.672 84.3956 109.643ZM41.5385 109.643H35.6044C35.2452 109.672 34.9101 109.835 34.6658 110.099C34.4214 110.364 34.2857 110.711 34.2857 111.071C34.2857 111.432 34.4214 111.779 34.6658 112.044C34.9101 112.308 35.2452 112.471 35.6044 112.5H41.5385C41.8976 112.471 42.2327 112.308 42.4771 112.044C42.7215 111.779 42.8572 111.432 42.8572 111.071C42.8572 110.711 42.7215 110.364 42.4771 110.099C42.2327 109.835 41.8976 109.672 41.5385 109.643ZM74.2857 109.643H45.7143C45.3354 109.643 44.972 109.793 44.7041 110.061C44.4362 110.329 44.2857 110.693 44.2857 111.071C44.2857 111.45 44.4362 111.814 44.7041 112.082C44.972 112.35 45.3354 112.5 45.7143 112.5H57.1V113.929H51.4286C51.0497 113.929 50.6863 114.079 50.4184 114.347C50.1505 114.615 50 114.978 50 115.357C50 115.736 50.1505 116.099 50.4184 116.367C50.6863 116.635 51.0497 116.786 51.4286 116.786H69.2857C69.6646 116.786 70.028 116.635 70.2959 116.367C70.5638 116.099 70.7143 115.736 70.7143 115.357C70.7143 114.978 70.5638 114.615 70.2959 114.347C70.028 114.079 69.6646 113.929 69.2857 113.929H62.9V112.5H74.2857C74.6646 112.5 75.028 112.35 75.2959 112.082C75.5638 111.814 75.7143 111.45 75.7143 111.071C75.7143 110.693 75.5638 110.329 75.2959 110.061C75.028 109.793 74.6646 109.643 74.2857 109.643ZM95.4792 58.2967C95.3762 58.1399 95.2432 58.0049 95.088 57.8995C94.9328 57.7941 94.7584 57.7203 94.5746 57.6823C94.3909 57.6444 94.2015 57.643 94.0172 57.6782C93.8329 57.7135 93.6574 57.7847 93.5006 57.8878L62.7462 78.1452C62.0262 78.6373 61.1748 78.9014 60.3027 78.9034C59.4306 78.9054 58.578 78.6452 57.8557 78.1565L26.4948 57.6794C26.1771 57.4724 25.7902 57.4 25.4191 57.4783C25.0481 57.5566 24.7234 57.779 24.5163 58.0967C24.3093 58.4145 24.237 58.8014 24.3153 59.1724C24.3935 59.5435 24.616 59.8682 24.9337 60.0752L56.295 80.5516C57.4838 81.3426 58.8805 81.7633 60.3084 81.7603C61.7363 81.7573 63.1313 81.3308 64.3168 80.5348L95.0708 60.2774C95.3874 60.0687 95.6082 59.7429 95.6848 59.3715C95.7613 59.0001 95.6874 58.6136 95.4792 58.2967ZM43.5369 79.8261L24.9655 91.2669C24.8051 91.365 24.6657 91.4938 24.5552 91.6459C24.4448 91.798 24.3653 91.9704 24.3216 92.1532C24.2778 92.336 24.2705 92.5256 24.3001 92.7113C24.3296 92.8969 24.3956 93.0749 24.494 93.235C24.5925 93.3951 24.7216 93.5343 24.8739 93.6445C25.0262 93.7546 25.1987 93.8337 25.3816 93.8771C25.5645 93.9206 25.7542 93.9275 25.9397 93.8975C26.1253 93.8675 26.3032 93.8013 26.4631 93.7025L45.0345 82.2617C45.3575 82.0631 45.5884 81.7443 45.6763 81.3755C45.7643 81.0067 45.7021 80.6181 45.5035 80.2951C45.3049 79.9721 44.9862 79.7412 44.6173 79.6533C44.2485 79.5653 43.8599 79.6275 43.5369 79.8261ZM95.0345 91.2669L76.4631 79.8261C76.1401 79.6275 75.7515 79.5653 75.3826 79.6533C75.0138 79.7412 74.695 79.9721 74.4964 80.2951C74.2979 80.6181 74.2357 81.0067 74.3237 81.3755C74.4116 81.7443 74.6425 82.0631 74.9655 82.2617L93.5369 93.7025C93.8598 93.9002 94.248 93.9617 94.6163 93.8735C94.9845 93.7853 95.3027 93.5546 95.5011 93.232C95.6994 92.9094 95.7617 92.5214 95.6742 92.153C95.5867 91.7845 95.3567 91.4659 95.0345 91.2669Z" fill="#0A66C2"/>
<path d="M38.9726 60.4318C39.3688 61.5558 40.1038 62.5293 41.0763 63.2181C42.0489 63.907 43.2111 64.2773 44.4028 64.278C45.0341 64.278 45.6609 64.1725 46.2574 63.9659L88.3666 49.4138C89.7959 48.9154 90.9692 47.8702 91.6288 46.5077C92.2884 45.1452 92.3804 43.5767 91.8848 42.1463L83.8844 19.2034C83.4882 18.0794 82.7532 17.1059 81.7807 16.4171C80.8082 15.7282 79.646 15.3579 78.4542 15.3571C77.8229 15.3573 77.1961 15.4627 76.5996 15.6693L34.4905 30.2214C33.0611 30.7198 31.8879 31.765 31.2283 33.1275C30.5687 34.49 30.4766 36.0585 30.9723 37.4888L38.9726 60.4318ZM33.8 34.3736C33.961 34.0366 34.1873 33.735 34.4659 33.4863C34.7445 33.2376 35.0698 33.0468 35.4228 32.925L77.5319 18.3729C77.8286 18.27 78.1404 18.2174 78.4545 18.2174C79.0536 18.216 79.6384 18.4008 80.128 18.7463C80.6175 19.0919 80.9875 19.581 81.1869 20.146L89.1873 43.089C89.4325 43.8018 89.3858 44.5826 89.0573 45.261C88.7289 45.9395 88.1454 46.4604 87.4343 46.7102L45.3251 61.2623C45.0285 61.3652 44.7168 61.4177 44.4028 61.4178C43.8036 61.4193 43.2188 61.2344 42.7292 60.8889C42.2396 60.5433 41.8696 60.0542 41.6702 59.4891L33.6698 36.5462C33.5465 36.1935 33.4946 35.8198 33.517 35.4468C33.5393 35.0739 33.6355 34.7091 33.8 34.3736Z" fill="#1D2329"/>
<path d="M40.2869 36.8975L58.7903 41.6061C59.9411 41.8998 61.153 41.8475 62.2743 41.4558C63.3956 41.0641 64.3764 40.3504 65.094 39.404L76.4253 24.4965C76.539 24.3472 76.6222 24.1769 76.6701 23.9955C76.718 23.814 76.7297 23.6249 76.7045 23.4389C76.6793 23.2529 76.6178 23.0737 76.5233 22.9115C76.4289 22.7494 76.3035 22.6073 76.1541 22.4936C76.0048 22.3799 75.8346 22.2967 75.6531 22.2488C75.4717 22.2009 75.2825 22.1892 75.0966 22.2144C74.9106 22.2396 74.7314 22.3011 74.5692 22.3956C74.407 22.49 74.265 22.6155 74.1513 22.7648L62.82 37.6723C62.4411 38.1713 61.9236 38.5476 61.3321 38.7541C60.7406 38.9607 60.1013 38.9885 59.4941 38.8338L40.9907 34.1253C40.6234 34.0329 40.2345 34.09 39.9093 34.2841C39.5841 34.4781 39.3491 34.7932 39.2559 35.1603C39.1627 35.5273 39.2189 35.9164 39.4122 36.2421C39.6055 36.5677 39.92 36.8035 40.2869 36.8975ZM68.9765 39.9176C68.8789 40.284 68.9307 40.6741 69.1205 41.0023C69.3104 41.3305 69.6228 41.5699 69.989 41.6679L80.7033 44.5281C81.0695 44.6248 81.4592 44.5723 81.7868 44.3821C82.1143 44.1919 82.3531 43.8794 82.4505 43.5134C82.548 43.1473 82.4962 42.7576 82.3066 42.4296C82.117 42.1017 81.8051 41.8624 81.4392 41.7642L70.7249 38.904C70.3587 38.8067 69.9688 38.8588 69.6409 39.0489C69.3131 39.239 69.0741 39.5514 68.9765 39.9176ZM53.9023 44.3758L46.7594 52.9565C46.6377 53.1004 46.5456 53.267 46.4885 53.4467C46.4315 53.6263 46.4105 53.8155 46.4268 54.0033C46.4432 54.1911 46.4965 54.3739 46.5838 54.541C46.671 54.7081 46.7905 54.8563 46.9353 54.977C47.08 55.0978 47.2473 55.1887 47.4273 55.2445C47.6074 55.3004 47.7967 55.3201 47.9844 55.3024C48.1721 55.2848 48.3544 55.2302 48.5209 55.1418C48.6874 55.0534 48.8348 54.933 48.9546 54.7874L56.0974 46.2068C56.2192 46.0628 56.3112 45.8962 56.3683 45.7165C56.4254 45.5369 56.4463 45.3477 56.43 45.1599C56.4136 44.9721 56.3603 44.7894 56.273 44.6223C56.1858 44.4551 56.0663 44.307 55.9216 44.1862C55.7768 44.0655 55.6096 43.9745 55.4295 43.9187C55.2495 43.8628 55.0601 43.8432 54.8724 43.8608C54.6848 43.8784 54.5024 43.933 54.3359 44.0214C54.1694 44.1098 54.022 44.2302 53.9023 44.3758Z" fill="#0A66C2"/>
<path d="M114.285 103.929H112.142C111.764 103.929 111.4 104.079 111.132 104.347C110.864 104.615 110.714 104.978 110.714 105.357C110.714 105.736 110.864 106.099 111.132 106.367C111.4 106.635 111.764 106.786 112.142 106.786H114.285C114.664 106.786 115.028 106.635 115.295 106.367C115.563 106.099 115.714 105.736 115.714 105.357C115.714 104.978 115.563 104.615 115.295 104.347C115.028 104.079 114.664 103.929 114.285 103.929Z" fill="#1D2329"/>
<path d="M118.571 106.786C119.36 106.786 120 106.146 120 105.357C120 104.568 119.36 103.929 118.571 103.929C117.782 103.929 117.143 104.568 117.143 105.357C117.143 106.146 117.782 106.786 118.571 106.786Z" fill="#1D2329"/>
<path d="M107.658 103.929H104.936C105.445 103.06 105.714 102.072 105.715 101.065V53.8719C105.711 52.3569 105.108 50.905 104.037 49.8331C102.967 48.7613 101.515 48.1568 100 48.1515H93.9841C93.3668 49.2853 92.4993 50.2634 91.4474 51.0117H100C100.758 51.013 101.485 51.3148 102.02 51.851C102.556 52.3872 102.857 53.114 102.857 53.8719V101.065C102.857 101.823 102.556 102.55 102.02 103.086C101.485 103.622 100.758 103.924 100 103.926H20.0003C19.2424 103.924 18.5159 103.622 17.9803 103.086C17.4447 102.55 17.1436 101.823 17.1432 101.065V53.8719C17.1436 53.114 17.4447 52.3872 17.9803 51.851C18.5159 51.3148 19.2424 51.013 20.0003 51.0117H32.662L31.6646 48.1515H20.0003C18.4853 48.1568 17.034 48.7613 15.9633 49.8331C14.8926 50.905 14.2896 52.3569 14.286 53.8719V101.065C14.2868 102.072 14.5557 103.06 15.065 103.929H12.3422C12.139 103.902 11.9324 103.919 11.7363 103.979C11.5402 104.038 11.3591 104.139 11.2051 104.274C11.0511 104.41 10.9277 104.576 10.8431 104.763C10.7586 104.95 10.7148 105.152 10.7148 105.357C10.7148 105.562 10.7586 105.765 10.8431 105.951C10.9277 106.138 11.0511 106.305 11.2051 106.44C11.3591 106.575 11.5402 106.676 11.7363 106.736C11.9324 106.795 12.139 106.812 12.3422 106.786H107.658C107.862 106.812 108.068 106.795 108.264 106.736C108.46 106.676 108.641 106.575 108.795 106.44C108.95 106.305 109.073 106.138 109.157 105.951C109.242 105.765 109.286 105.562 109.286 105.357C109.286 105.152 109.242 104.95 109.157 104.763C109.073 104.576 108.95 104.41 108.795 104.274C108.641 104.139 108.46 104.038 108.264 103.979C108.068 103.919 107.862 103.902 107.658 103.929ZM23.0751 8.21429C23.4989 8.21429 23.9132 8.08862 24.2656 7.85316C24.618 7.6177 24.8926 7.28303 25.0548 6.89147C25.217 6.49992 25.2595 6.06906 25.1768 5.65339C25.0941 5.23771 24.89 4.85589 24.5903 4.55621C24.2906 4.25652 23.9088 4.05244 23.4931 3.96975C23.0775 3.88707 22.6466 3.92951 22.2551 4.0917C21.8635 4.25388 21.5288 4.52854 21.2934 4.88093C21.0579 5.23332 20.9322 5.64762 20.9322 6.07144C20.9329 6.63956 21.1589 7.18423 21.5606 7.58595C21.9623 7.98767 22.507 8.21364 23.0751 8.21429ZM23.0751 5.00001C23.287 5.00001 23.4941 5.06285 23.6703 5.18058C23.8465 5.29831 23.9839 5.46564 24.065 5.66142C24.1461 5.8572 24.1673 6.07263 24.1259 6.28046C24.0846 6.4883 23.9825 6.67921 23.8327 6.82905C23.6829 6.97889 23.492 7.08094 23.2841 7.12228C23.0763 7.16362 22.8608 7.1424 22.6651 7.06131C22.4693 6.98021 22.302 6.84289 22.1842 6.66669C22.0665 6.4905 22.0037 6.28335 22.0037 6.07144C22.0039 5.78736 22.1169 5.515 22.3178 5.31413C22.5187 5.11326 22.791 5.00029 23.0751 5.00001ZM106.647 42.5C106.364 42.5 106.088 42.5838 105.853 42.7408C105.618 42.8977 105.435 43.1209 105.327 43.3819C105.219 43.6429 105.19 43.9302 105.245 44.2073C105.301 44.4844 105.437 44.7389 105.636 44.9387C105.836 45.1385 106.091 45.2746 106.368 45.3297C106.645 45.3848 106.932 45.3565 107.193 45.2484C107.454 45.1403 107.677 44.9572 107.834 44.7223C107.991 44.4873 108.075 44.2111 108.075 43.9286C108.075 43.5498 107.924 43.1867 107.656 42.9189C107.388 42.6511 107.025 42.5004 106.647 42.5ZM106.647 44.6429C106.505 44.6429 106.367 44.601 106.25 44.5225C106.132 44.444 106.041 44.3324 105.987 44.2019C105.933 44.0714 105.918 43.9278 105.946 43.7892C105.974 43.6507 106.042 43.5234 106.141 43.4235C106.241 43.3236 106.369 43.2556 106.507 43.228C106.646 43.2005 106.789 43.2146 106.92 43.2687C107.05 43.3227 107.162 43.4143 107.24 43.5317C107.319 43.6492 107.361 43.7873 107.361 43.9286C107.361 44.118 107.285 44.2995 107.151 44.4334C107.017 44.5674 106.836 44.6427 106.647 44.6429ZM94.5037 21.7857C94.2211 21.7857 93.9449 21.8695 93.71 22.0265C93.4751 22.1835 93.292 22.4066 93.1838 22.6676C93.0757 22.9286 93.0474 23.2159 93.1025 23.493C93.1577 23.7701 93.2937 24.0247 93.4935 24.2244C93.6933 24.4242 93.9479 24.5603 94.225 24.6154C94.5021 24.6705 94.7893 24.6422 95.0504 24.5341C95.3114 24.426 95.5345 24.2429 95.6915 24.008C95.8484 23.773 95.9322 23.4968 95.9322 23.2143C95.9318 22.8355 95.7812 22.4724 95.5133 22.2046C95.2455 21.9368 94.8824 21.7862 94.5037 21.7857ZM94.5037 23.9286C94.3624 23.9286 94.2243 23.8867 94.1068 23.8082C93.9894 23.7297 93.8978 23.6182 93.8438 23.4876C93.7897 23.3571 93.7755 23.2135 93.8031 23.0749C93.8307 22.9364 93.8987 22.8091 93.9986 22.7092C94.0985 22.6093 94.2258 22.5413 94.3643 22.5137C94.5029 22.4862 94.6465 22.5003 94.777 22.5544C94.9075 22.6084 95.0191 22.7 95.0976 22.8175C95.1761 22.9349 95.2179 23.073 95.2179 23.2143C95.2178 23.4037 95.1424 23.5852 95.0085 23.7192C94.8746 23.8531 94.693 23.9284 94.5037 23.9286ZM108.789 3.21429C108.507 3.21429 108.231 3.29808 107.996 3.45505C107.761 3.61203 107.578 3.83514 107.47 4.09618C107.361 4.35721 107.333 4.64445 107.388 4.92157C107.443 5.19868 107.579 5.45323 107.779 5.65302C107.979 5.85281 108.234 5.98887 108.511 6.04399C108.788 6.09911 109.075 6.07082 109.336 5.96269C109.597 5.85457 109.82 5.67146 109.977 5.43654C110.134 5.20161 110.218 4.92541 110.218 4.64287C110.218 4.26412 110.067 3.90101 109.799 3.63319C109.531 3.36538 109.168 3.21473 108.789 3.21429ZM108.789 5.35715C108.648 5.35715 108.51 5.31526 108.393 5.23677C108.275 5.15829 108.184 5.04673 108.129 4.91621C108.075 4.78569 108.061 4.64207 108.089 4.50352C108.116 4.36496 108.184 4.23768 108.284 4.13779C108.384 4.0379 108.511 3.96987 108.65 3.9423C108.789 3.91474 108.932 3.92889 109.063 3.98295C109.193 4.03701 109.305 4.12857 109.383 4.24603C109.462 4.36349 109.504 4.50159 109.504 4.64287C109.503 4.83225 109.428 5.01382 109.294 5.14773C109.16 5.28165 108.979 5.35696 108.789 5.35715ZM17.3608 36.7857C17.3608 36.5032 17.277 36.227 17.12 35.9921C16.9631 35.7571 16.74 35.574 16.4789 35.4659C16.2179 35.3578 15.9306 35.3295 15.6535 35.3846C15.3764 35.4397 15.1219 35.5758 14.9221 35.7756C14.7223 35.9754 14.5862 36.2299 14.5311 36.507C14.476 36.7841 14.5043 37.0714 14.6124 37.3324C14.7205 37.5935 14.9036 37.8166 15.1386 37.9735C15.3735 38.1305 15.6497 38.2143 15.9322 38.2143C16.311 38.2139 16.6741 38.0632 16.9419 37.7954C17.2097 37.5276 17.3604 37.1645 17.3608 36.7857ZM15.2179 36.7857C15.2179 36.6445 15.2598 36.5064 15.3383 36.3889C15.4168 36.2714 15.5284 36.1799 15.6589 36.1258C15.7894 36.0717 15.933 36.0576 16.0716 36.0852C16.2101 36.1127 16.3374 36.1808 16.4373 36.2806C16.5372 36.3805 16.6052 36.5078 16.6328 36.6464C16.6604 36.7849 16.6462 36.9286 16.5921 37.0591C16.5381 37.1896 16.4465 37.3011 16.3291 37.3796C16.2116 37.4581 16.0735 37.5 15.9322 37.5C15.7428 37.4998 15.5613 37.4245 15.4274 37.2906C15.2934 37.1567 15.2181 36.9751 15.2179 36.7857Z" fill="#1D2329"/>
<path d="M3.49165 18.2221L4.55379 16.8257L3.88308 16.4457L3.20094 18.01H3.17879L2.48594 16.4564L1.80379 16.8479L2.85451 18.2114V18.2336L1.21094 18.0214V18.7814L2.86522 18.5693V18.5914L1.80379 19.9543L2.44022 20.3571L3.16737 18.7814H3.18951L3.86022 20.3457L4.56451 19.9436L3.49165 18.6021V18.58L5.17879 18.7814V18.0214L3.49165 18.2443V18.2221Z" fill="#0A66C2"/>
<path d="M41.4861 18.2621L40.8746 19.0471L41.2418 19.2786L41.6603 18.3714H41.6725L42.0589 19.2721L42.4646 19.0407L41.8468 18.2679V18.255L42.8182 18.3714V17.9336L41.8468 18.0621V18.0493L42.4582 17.245L42.0725 17.0264L41.6796 17.9271H41.6668L41.2675 17.0321L40.8746 17.2579L41.4796 18.0429V18.0557L40.5332 17.9336V18.3714L41.4861 18.2493V18.2621Z" fill="#0A66C2"/>
<path d="M117.361 29.4379V28.6929L115.706 28.9122V28.89L116.747 27.52L116.089 27.1472L115.421 28.6814H115.399L114.719 27.1579L114.05 27.5422L115.081 28.8793V28.9014L113.469 28.6929V29.4379L115.092 29.23V29.2522L114.05 30.5893L114.675 30.9843L115.388 29.4379H115.409L116.067 30.9729L116.758 30.5786L115.706 29.2629V29.2407L117.361 29.4379Z" fill="#0A66C2"/>
<path d="M61.9625 7.20429L62.8611 6.02214L62.2932 5.70071L61.7168 7.02429H61.6975L61.1118 5.71L60.5339 6.04143L61.4232 7.195V7.21357L60.0332 7.03429V7.67714L61.4325 7.49714V7.51643L60.5339 8.67L61.0732 9.01071L61.6882 7.67714H61.7068L62.2746 9.00071L62.8703 8.66071L61.9625 7.52571V7.50643L63.3896 7.67714V7.03429L61.9625 7.22286V7.20429Z" fill="#0A66C2"/>
</g>
<defs>
<clipPath id="clip0_1200_5187">
<rect width="120" height="120" fill="white"/>
</clipPath>
</defs>
</svg>
