<svg width="40" height="40" viewBox="0 0 40 40" fill="none" xmlns="http://www.w3.org/2000/svg">
<circle cx="20" cy="20" r="20" fill="#0A66C2"/>
<g clipPath="url(#clip0_787_5267)">
<rect width="16" height="16" transform="translate(12 12)" fill="#0A66C2"/>
<path d="M17.6663 24.6673H17.333C14.6663 24.6673 13.333 24.0007 13.333 20.6673V17.334C13.333 14.6673 14.6663 13.334 17.333 13.334H22.6663C25.333 13.334 26.6663 14.6673 26.6663 17.334V20.6673C26.6663 23.334 25.333 24.6673 22.6663 24.6673H22.333C22.1263 24.6673 21.9263 24.7673 21.7997 24.934L20.7997 26.2673C20.3597 26.854 19.6397 26.854 19.1997 26.2673L18.1997 24.934C18.093 24.7873 17.8463 24.6673 17.6663 24.6673Z" stroke="white" strokeMiterlimit="10" strokeLinecap="round" strokeLinejoin="round"/>
<path d="M16.667 17.334H23.3337M16.667 20.6673H20.667" stroke="white" strokeLinecap="round" strokeLinejoin="round"/>
</g>
<defs>
<clipPath id="clip0_787_5267">
<rect width="16" height="16" fill="white" transform="translate(12 12)"/>
</clipPath>
</defs>
</svg>
