<svg width="22" height="22" viewBox="0 0 22 22" fill="none" xmlns="http://www.w3.org/2000/svg">
<g clipPath="url(#clip0_787_5248)">
<g clipPath="url(#clip1_787_5248)">
<path d="M20.9859 9.29093C20.6195 8.89587 20.253 8.52943 20.1042 8.19163C19.9839 7.85382 19.9839 7.33852 19.9839 6.85185C19.9553 5.93577 19.9553 4.87082 19.2224 4.13795C18.4896 3.40508 17.4246 3.37645 16.5085 3.37645C15.9932 3.37645 15.4722 3.34782 15.1687 3.22186C14.8309 3.10163 14.4359 2.70656 14.0694 2.36876C13.3996 1.7275 12.6667 0.994629 11.6647 0.994629C10.6914 0.994629 9.92988 1.7275 9.28862 2.36876C8.89356 2.70084 8.52712 3.10163 8.16069 3.22186C7.85724 3.3421 7.33621 3.37645 6.84954 3.37645C5.90483 3.37645 4.86851 3.40508 4.13564 4.13795C3.40277 4.87082 3.37414 5.93577 3.37414 6.85185C3.34552 7.33852 3.34552 7.85955 3.21955 8.19163C3.06496 8.52371 2.70426 8.89014 2.33782 9.29093C1.73092 9.92647 0.998047 10.688 0.998047 11.667C0.998047 12.6747 1.73092 13.4362 2.33782 14.0718C2.70426 14.4382 3.07069 14.8333 3.21955 15.1711C3.33979 15.5031 3.33979 15.9955 3.37414 16.5108C3.37414 17.4269 3.40277 18.4919 4.13564 19.2247C4.86851 19.9576 5.90483 19.9862 6.84954 19.9862C7.33621 19.9862 7.85724 19.9862 8.16069 20.1408C8.4985 20.2611 8.89356 20.6561 9.28862 20.9939C9.92988 21.6352 10.6914 22.3337 11.6647 22.3337C12.6724 22.3337 13.3996 21.6352 14.0694 20.9939C14.4359 20.6618 14.8309 20.2611 15.1687 20.1408C15.4722 19.9862 15.9932 19.9862 16.5085 19.9862C17.4246 19.9862 18.4896 19.9576 19.2224 19.2247C19.9553 18.4919 19.9553 17.4269 19.9839 16.5108C19.9839 15.9955 19.9839 15.5031 20.1042 15.1711C20.2587 14.8333 20.6195 14.4382 20.9859 14.0718C21.6271 13.4305 22.3257 12.669 22.3257 11.667C22.3314 10.688 21.6271 9.92647 20.9859 9.29093ZM16.1707 9.68599C16.1421 9.7776 16.0791 9.86921 16.0161 9.92647L10.6857 15.2569C10.6227 15.3199 10.5311 15.3772 10.4395 15.4402C10.3478 15.4688 10.2276 15.4688 10.136 15.4688C10.0444 15.4688 9.95278 15.4688 9.86117 15.4402C9.76957 15.3772 9.67796 15.3199 9.61498 15.2569L7.33049 12.9725C7.1759 12.8179 7.09002 12.6346 7.09002 12.4228C7.09002 12.2396 7.18162 12.0277 7.33049 11.9075C7.45072 11.7529 7.66829 11.6613 7.84579 11.6613C8.05763 11.6613 8.24085 11.7529 8.39544 11.9075L10.1303 13.6423L14.9454 8.85579C15.0084 8.76418 15.1 8.73555 15.1916 8.67257C15.2833 8.64395 15.3749 8.60959 15.4665 8.60959C15.5581 8.60959 15.6783 8.63822 15.7699 8.67257C15.8615 8.73555 15.9531 8.76418 16.0161 8.85579C16.0791 8.91877 16.1364 9.01038 16.1707 9.09626C16.2337 9.18787 16.2337 9.27948 16.2337 9.37109C16.2337 9.50278 16.2337 9.59439 16.1707 9.68599Z" fill="#00A1FB"/>
<path d="M16.2306 9.38232C16.2306 9.50256 16.2306 9.59417 16.1676 9.68578C16.139 9.77738 16.076 9.86899 16.013 9.92625L10.6825 15.2567C10.6196 15.3197 10.528 15.377 10.4364 15.4399C10.3447 15.4686 10.2245 15.4686 10.1329 15.4686C10.0413 15.4686 9.94968 15.4686 9.85807 15.4399C9.76646 15.377 9.67486 15.3197 9.61187 15.2567L7.32739 12.9722C7.1728 12.8176 7.08691 12.6344 7.08691 12.4226C7.08691 12.2394 7.17852 12.0275 7.32739 11.9073C7.44762 11.7527 7.66519 11.6611 7.84268 11.6611C8.05453 11.6611 8.23775 11.7527 8.39234 11.9073L10.1272 13.6421L14.9423 8.85557C15.0053 8.76396 15.0969 8.73534 15.1885 8.67236C15.2802 8.64373 15.3718 8.60938 15.4634 8.60938C15.555 8.60938 15.6752 8.638 15.7668 8.67236C15.8584 8.73534 15.95 8.76396 16.013 8.85557C16.076 8.91855 16.1333 9.01016 16.1676 9.09605C16.2306 9.19911 16.2306 9.29071 16.2306 9.38232Z" fill="white"/>
</g>
</g>
<defs>
<clipPath id="clip0_787_5248">
<rect width="21.3333" height="21.3333" fill="white" transform="translate(0.666016 0.666992)"/>
</clipPath>
<clipPath id="clip1_787_5248">
<rect width="21.3333" height="21.3333" fill="white" transform="translate(0.999023 1.00049)"/>
</clipPath>
</defs>
</svg>
